solid OpenSCAD_Model
  facet normal 0 0 -1
    outer loop
      vertex -16 16 0
      vertex -15.6504 19.3266 0
      vertex -15.6504 12.6734 0
    endloop
  endfacet
  facet normal 0 0 -1
    outer loop
      vertex -15.6504 12.6734 0
      vertex -15.6504 19.3266 0
      vertex -14.6167 22.5078 0
    endloop
  endfacet
  facet normal 0 0 -1
    outer loop
      vertex -15.6504 12.6734 0
      vertex -14.6167 22.5078 0
      vertex -12.9443 25.4046 0
    endloop
  endfacet
  facet normal 0 0 -1
    outer loop
      vertex -15.6504 12.6734 0
      vertex -12.9443 25.4046 0
      vertex -10.7061 27.8903 0
    endloop
  endfacet
  facet normal 0 0 -1
    outer loop
      vertex -15.6504 12.6734 0
      vertex -10.7061 27.8903 0
      vertex -8 29.8564 0
    endloop
  endfacet
  facet normal 0 0 -1
    outer loop
      vertex -15.6504 12.6734 0
      vertex -8 29.8564 0
      vertex -4.94427 31.2169 0
    endloop
  endfacet
  facet normal 0 0 -1
    outer loop
      vertex -15.6504 12.6734 0
      vertex -4.94427 31.2169 0
      vertex -1.67246 31.9123 0
    endloop
  endfacet
  facet normal 0 0 -1
    outer loop
      vertex -15.6504 12.6734 0
      vertex -1.67246 31.9123 0
      vertex 0 31.9123 0
    endloop
  endfacet
  facet normal 0 0 -1
    outer loop
      vertex 0 31.9123 0
      vertex 0 32 0
      vertex 40 32 0
    endloop
  endfacet
  facet normal 0 0 -1
    outer loop
      vertex 0 31.9123 0
      vertex 40 32 0
      vertex -15.6504 12.6734 0
    endloop
  endfacet
  facet normal 0 0 -1
    outer loop
      vertex -15.6504 12.6734 0
      vertex 40 32 0
      vertex 40 0 0
    endloop
  endfacet
  facet normal 0 0 -1
    outer loop
      vertex 0 0.08765 0
      vertex 40 0 0
      vertex 0 0 0
    endloop
  endfacet
  facet normal 0 0 -1
    outer loop
      vertex -15.6504 12.6734 0
      vertex 40 0 0
      vertex 0 0.08765 0
    endloop
  endfacet
  facet normal 0 0 -1
    outer loop
      vertex -15.6504 12.6734 0
      vertex -1.67246 0.08765 0
      vertex -4.94427 0.783096 0
    endloop
  endfacet
  facet normal 0 0 -1
    outer loop
      vertex -15.6504 12.6734 0
      vertex -4.94427 0.783096 0
      vertex -8 2.14359 0
    endloop
  endfacet
  facet normal 0 0 -1
    outer loop
      vertex -15.6504 12.6734 0
      vertex -8 2.14359 0
      vertex -10.7061 4.10968 0
    endloop
  endfacet
  facet normal 0 0 -1
    outer loop
      vertex -15.6504 12.6734 0
      vertex -10.7061 4.10968 0
      vertex -12.9443 6.59544 0
    endloop
  endfacet
  facet normal 0 0 -1
    outer loop
      vertex -15.6504 12.6734 0
      vertex -12.9443 6.59544 0
      vertex -14.6167 9.49221 0
    endloop
  endfacet
  facet normal 0 0 -1
    outer loop
      vertex -1.67246 0.08765 0
      vertex -15.6504 12.6734 0
      vertex 0 0.08765 0
    endloop
  endfacet
  facet normal -0.994522 0.104528 0
    outer loop
      vertex -16 16 0
      vertex -16 16 5
      vertex -15.6504 19.3266 0
    endloop
  endfacet
  facet normal -0.994522 0.104528 0
    outer loop
      vertex -15.6504 19.3266 0
      vertex -16 16 5
      vertex -15.6504 19.3266 5
    endloop
  endfacet
  facet normal -0.994522 -0.104528 0
    outer loop
      vertex -16 16 0
      vertex -15.6504 12.6734 0
      vertex -16 16 5
    endloop
  endfacet
  facet normal -0.994522 -0.104528 0
    outer loop
      vertex -16 16 5
      vertex -15.6504 12.6734 0
      vertex -15.6504 12.6734 5
    endloop
  endfacet
  facet normal -0.951056 -0.309017 0
    outer loop
      vertex -15.6504 12.6734 0
      vertex -14.6167 9.49221 0
      vertex -15.6504 12.6734 5
    endloop
  endfacet
  facet normal -0.951056 -0.309017 0
    outer loop
      vertex -15.6504 12.6734 5
      vertex -14.6167 9.49221 0
      vertex -14.6167 9.49221 5
    endloop
  endfacet
  facet normal -0.866025 -0.5 0
    outer loop
      vertex -14.6167 9.49221 0
      vertex -12.9443 6.59544 0
      vertex -14.6167 9.49221 5
    endloop
  endfacet
  facet normal -0.866025 -0.5 0
    outer loop
      vertex -14.6167 9.49221 5
      vertex -12.9443 6.59544 0
      vertex -12.9443 6.59544 5
    endloop
  endfacet
  facet normal -0.743145 -0.669131 0
    outer loop
      vertex -12.9443 6.59544 0
      vertex -10.7061 4.10968 0
      vertex -12.9443 6.59544 5
    endloop
  endfacet
  facet normal -0.743145 -0.669131 0
    outer loop
      vertex -12.9443 6.59544 5
      vertex -10.7061 4.10968 0
      vertex -10.7061 4.10968 5
    endloop
  endfacet
  facet normal -0.587785 -0.809017 0
    outer loop
      vertex -10.7061 4.10968 5
      vertex -10.7061 4.10968 0
      vertex -8 2.14359 0
    endloop
  endfacet
  facet normal -0.587785 -0.809017 0
    outer loop
      vertex -8 2.14359 5
      vertex -10.7061 4.10968 5
      vertex -8 2.14359 0
    endloop
  endfacet
  facet normal -0.406737 -0.913545 0
    outer loop
      vertex -8 2.14359 5
      vertex -8 2.14359 0
      vertex -4.94427 0.783096 0
    endloop
  endfacet
  facet normal -0.406737 -0.913545 0
    outer loop
      vertex -4.94427 0.783096 5
      vertex -8 2.14359 5
      vertex -4.94427 0.783096 0
    endloop
  endfacet
  facet normal -0.207912 -0.978148 0
    outer loop
      vertex -4.94427 0.783096 5
      vertex -4.94427 0.783096 0
      vertex -1.67246 0.08765 0
    endloop
  endfacet
  facet normal -0.207912 -0.978148 0
    outer loop
      vertex -1.67246 0.08765 5
      vertex -4.94427 0.783096 5
      vertex -1.67246 0.08765 0
    endloop
  endfacet
  facet normal 0 -1 0
    outer loop
      vertex -1.67246 0.08765 5
      vertex -1.67246 0.08765 0
      vertex 0 0.08765 0
    endloop
  endfacet
  facet normal 0 -1 0
    outer loop
      vertex 0 0.08765 5
      vertex -1.67246 0.08765 5
      vertex 0 0.08765 0
    endloop
  endfacet
  facet normal -1 0 0
    outer loop
      vertex 0 0 0
      vertex 0 0 5
      vertex 0 0.08765 0
    endloop
  endfacet
  facet normal -1 0 0
    outer loop
      vertex 0 0.08765 0
      vertex 0 0 5
      vertex 0 0.08765 5
    endloop
  endfacet
  facet normal 0 -1 0
    outer loop
      vertex 0 0 5
      vertex 0 0 0
      vertex 40 0 0
    endloop
  endfacet
  facet normal 0 -1 0
    outer loop
      vertex 26 0 5
      vertex 0 0 5
      vertex 40 0 0
    endloop
  endfacet
  facet normal 0 -1 0
    outer loop
      vertex 40 0 20
      vertex 30 0 10
      vertex 40 0 0
    endloop
  endfacet
  facet normal 0 -1 0
    outer loop
      vertex 30 0 10
      vertex 29.6194 0 8.08658
      vertex 40 0 0
    endloop
  endfacet
  facet normal 0 -1 0
    outer loop
      vertex 29.6194 0 8.08658
      vertex 28.5355 0 6.46447
      vertex 40 0 0
    endloop
  endfacet
  facet normal 0 -1 0
    outer loop
      vertex 28.5355 0 6.46447
      vertex 26.9134 0 5.3806
      vertex 40 0 0
    endloop
  endfacet
  facet normal 0 -1 0
    outer loop
      vertex 26.9134 0 5.3806
      vertex 26 0 5.19891
      vertex 40 0 0
    endloop
  endfacet
  facet normal 0 -1 0
    outer loop
      vertex 26 0 5.19891
      vertex 26 0 5
      vertex 40 0 0
    endloop
  endfacet
  facet normal 0 -1 0
    outer loop
      vertex 30 0 20
      vertex 30 0 10
      vertex 40 0 20
    endloop
  endfacet
  facet normal 1 0 0
    outer loop
      vertex 40 11.7678 8.23223
      vertex 40 0 0
      vertex 40 32 0
    endloop
  endfacet
  facet normal 1 0 0
    outer loop
      vertex 40 32 20
      vertex 40 25 20
      vertex 40 32 0
    endloop
  endfacet
  facet normal 1 0 0
    outer loop
      vertex 40 25 20
      vertex 40 25 10
      vertex 40 32 0
    endloop
  endfacet
  facet normal 1 0 0
    outer loop
      vertex 40 12.5 20
      vertex 40 20.7322 8.23223
      vertex 40 20 10
    endloop
  endfacet
  facet normal 1 0 0
    outer loop
      vertex 40 20.7322 8.23223
      vertex 40 12.5 10
      vertex 40 32 0
    endloop
  endfacet
  facet normal 1 0 0
    outer loop
      vertex 40 25 10
      vertex 40 24.2678 8.23223
      vertex 40 32 0
    endloop
  endfacet
  facet normal 1 0 0
    outer loop
      vertex 40 12.5 20
      vertex 40 12.5 10
      vertex 40 20.7322 8.23223
    endloop
  endfacet
  facet normal 1 0 0
    outer loop
      vertex 40 24.2678 8.23223
      vertex 40 22.5 7.5
      vertex 40 32 0
    endloop
  endfacet
  facet normal 1 0 0
    outer loop
      vertex 40 22.5 7.5
      vertex 40 20.7322 8.23223
      vertex 40 32 0
    endloop
  endfacet
  facet normal 1 0 0
    outer loop
      vertex 40 12.5 10
      vertex 40 11.7678 8.23223
      vertex 40 32 0
    endloop
  endfacet
  facet normal 1 0 0
    outer loop
      vertex 40 10 7.5
      vertex 40 0 0
      vertex 40 11.7678 8.23223
    endloop
  endfacet
  facet normal 1 0 0
    outer loop
      vertex 40 10 7.5
      vertex 40 8.23223 8.23223
      vertex 40 0 0
    endloop
  endfacet
  facet normal 1 0 0
    outer loop
      vertex 40 0 20
      vertex 40 0 0
      vertex 40 8.23223 8.23223
    endloop
  endfacet
  facet normal 1 0 0
    outer loop
      vertex 40 0 20
      vertex 40 8.23223 8.23223
      vertex 40 7.5 10
    endloop
  endfacet
  facet normal 1 0 0
    outer loop
      vertex 40 7.5 10
      vertex 40 7.5 20
      vertex 40 0 20
    endloop
  endfacet
  facet normal 1 0 0
    outer loop
      vertex 40 20 10
      vertex 40 20 20
      vertex 40 12.5 20
    endloop
  endfacet
  facet normal 0 1 0
    outer loop
      vertex 0 32 0
      vertex 0 32 5
      vertex 40 32 0
    endloop
  endfacet
  facet normal 0 1 0
    outer loop
      vertex 40 32 0
      vertex 0 32 5
      vertex 26 32 5
    endloop
  endfacet
  facet normal 0 1 0
    outer loop
      vertex 40 32 0
      vertex 26 32 5
      vertex 26 32 5.19891
    endloop
  endfacet
  facet normal 0 1 0
    outer loop
      vertex 40 32 0
      vertex 26 32 5.19891
      vertex 26.9134 32 5.3806
    endloop
  endfacet
  facet normal 0 1 0
    outer loop
      vertex 26.9134 32 5.3806
      vertex 28.5355 32 6.46447
      vertex 40 32 0
    endloop
  endfacet
  facet normal 0 1 0
    outer loop
      vertex 28.5355 32 6.46447
      vertex 29.6194 32 8.08658
      vertex 40 32 0
    endloop
  endfacet
  facet normal 0 1 0
    outer loop
      vertex 29.6194 32 8.08658
      vertex 30 32 10
      vertex 40 32 0
    endloop
  endfacet
  facet normal 0 1 0
    outer loop
      vertex 40 32 0
      vertex 30 32 10
      vertex 30 32 20
    endloop
  endfacet
  facet normal 0 1 0
    outer loop
      vertex 40 32 0
      vertex 30 32 20
      vertex 40 32 20
    endloop
  endfacet
  facet normal -1 0 0
    outer loop
      vertex 0 31.9123 0
      vertex 0 31.9123 5
      vertex 0 32 0
    endloop
  endfacet
  facet normal -1 0 0
    outer loop
      vertex 0 32 0
      vertex 0 31.9123 5
      vertex 0 32 5
    endloop
  endfacet
  facet normal 0 1 0
    outer loop
      vertex -1.67246 31.9123 0
      vertex -1.67246 31.9123 5
      vertex 0 31.9123 0
    endloop
  endfacet
  facet normal 0 1 0
    outer loop
      vertex 0 31.9123 0
      vertex -1.67246 31.9123 5
      vertex 0 31.9123 5
    endloop
  endfacet
  facet normal -0.207912 0.978148 0
    outer loop
      vertex -4.94427 31.2169 0
      vertex -4.94427 31.2169 5
      vertex -1.67246 31.9123 0
    endloop
  endfacet
  facet normal -0.207912 0.978148 0
    outer loop
      vertex -1.67246 31.9123 0
      vertex -4.94427 31.2169 5
      vertex -1.67246 31.9123 5
    endloop
  endfacet
  facet normal -0.406737 0.913545 0
    outer loop
      vertex -8 29.8564 0
      vertex -8 29.8564 5
      vertex -4.94427 31.2169 0
    endloop
  endfacet
  facet normal -0.406737 0.913545 0
    outer loop
      vertex -4.94427 31.2169 0
      vertex -8 29.8564 5
      vertex -4.94427 31.2169 5
    endloop
  endfacet
  facet normal -0.587785 0.809017 0
    outer loop
      vertex -10.7061 27.8903 0
      vertex -10.7061 27.8903 5
      vertex -8 29.8564 0
    endloop
  endfacet
  facet normal -0.587785 0.809017 0
    outer loop
      vertex -8 29.8564 0
      vertex -10.7061 27.8903 5
      vertex -8 29.8564 5
    endloop
  endfacet
  facet normal -0.743145 0.669131 0
    outer loop
      vertex -12.9443 25.4046 0
      vertex -12.9443 25.4046 5
      vertex -10.7061 27.8903 0
    endloop
  endfacet
  facet normal -0.743145 0.669131 0
    outer loop
      vertex -10.7061 27.8903 0
      vertex -12.9443 25.4046 5
      vertex -10.7061 27.8903 5
    endloop
  endfacet
  facet normal -0.866025 0.5 0
    outer loop
      vertex -14.6167 22.5078 0
      vertex -14.6167 22.5078 5
      vertex -12.9443 25.4046 0
    endloop
  endfacet
  facet normal -0.866025 0.5 0
    outer loop
      vertex -12.9443 25.4046 0
      vertex -14.6167 22.5078 5
      vertex -12.9443 25.4046 5
    endloop
  endfacet
  facet normal -0.951056 0.309017 0
    outer loop
      vertex -15.6504 19.3266 0
      vertex -15.6504 19.3266 5
      vertex -14.6167 22.5078 0
    endloop
  endfacet
  facet normal -0.951056 0.309017 0
    outer loop
      vertex -14.6167 22.5078 0
      vertex -15.6504 19.3266 5
      vertex -14.6167 22.5078 5
    endloop
  endfacet
  facet normal 0 0 1
    outer loop
      vertex -15.6504 19.3266 5
      vertex -16 16 5
      vertex -15.6504 12.6734 5
    endloop
  endfacet
  facet normal 0 0 1
    outer loop
      vertex -12.9443 6.59544 5
      vertex -15.6504 19.3266 5
      vertex -14.6167 9.49221 5
    endloop
  endfacet
  facet normal 0 0 1
    outer loop
      vertex -14.6167 9.49221 5
      vertex -15.6504 19.3266 5
      vertex -15.6504 12.6734 5
    endloop
  endfacet
  facet normal 0 0 1
    outer loop
      vertex -10.7061 4.10968 5
      vertex -15.6504 19.3266 5
      vertex -12.9443 6.59544 5
    endloop
  endfacet
  facet normal 0 0 1
    outer loop
      vertex -8 2.14359 5
      vertex -15.6504 19.3266 5
      vertex -10.7061 4.10968 5
    endloop
  endfacet
  facet normal 0 0 1
    outer loop
      vertex -4.94427 0.783096 5
      vertex -15.6504 19.3266 5
      vertex -8 2.14359 5
    endloop
  endfacet
  facet normal 0 0 1
    outer loop
      vertex -1.67246 0.08765 5
      vertex -15.6504 19.3266 5
      vertex -4.94427 0.783096 5
    endloop
  endfacet
  facet normal 0 0 1
    outer loop
      vertex 0 0.08765 5
      vertex -15.6504 19.3266 5
      vertex -1.67246 0.08765 5
    endloop
  endfacet
  facet normal 0 0 1
    outer loop
      vertex -3.5 12.5 5
      vertex -15.6504 19.3266 5
      vertex 0 0.08765 5
    endloop
  endfacet
  facet normal 0 0 1
    outer loop
      vertex 26 0 5
      vertex 0 0.08765 5
      vertex 0 0 5
    endloop
  endfacet
  facet normal 0 0 1
    outer loop
      vertex 3.5 19.5 5
      vertex 26 6 5
      vertex 33 6 5
    endloop
  endfacet
  facet normal 0 0 1
    outer loop
      vertex 26 26 5
      vertex -15.6504 19.3266 5
      vertex 33 26 5
    endloop
  endfacet
  facet normal 0 0 1
    outer loop
      vertex 26 32 5
      vertex -15.6504 19.3266 5
      vertex 26 26 5
    endloop
  endfacet
  facet normal 0 0 1
    outer loop
      vertex 0 31.9123 5
      vertex -15.6504 19.3266 5
      vertex 26 32 5
    endloop
  endfacet
  facet normal 0 0 1
    outer loop
      vertex 0 32 5
      vertex 0 31.9123 5
      vertex 26 32 5
    endloop
  endfacet
  facet normal 0 0 1
    outer loop
      vertex 3.5 12.5 5
      vertex -3.5 12.5 5
      vertex 26 0 5
    endloop
  endfacet
  facet normal 0 0 1
    outer loop
      vertex -4.94427 31.2169 5
      vertex -15.6504 19.3266 5
      vertex -1.67246 31.9123 5
    endloop
  endfacet
  facet normal 0 0 1
    outer loop
      vertex -8 29.8564 5
      vertex -15.6504 19.3266 5
      vertex -4.94427 31.2169 5
    endloop
  endfacet
  facet normal 0 0 1
    outer loop
      vertex -10.7061 27.8903 5
      vertex -15.6504 19.3266 5
      vertex -8 29.8564 5
    endloop
  endfacet
  facet normal 0 0 1
    outer loop
      vertex -12.9443 25.4046 5
      vertex -15.6504 19.3266 5
      vertex -10.7061 27.8903 5
    endloop
  endfacet
  facet normal 0 0 1
    outer loop
      vertex -14.6167 22.5078 5
      vertex -15.6504 19.3266 5
      vertex -12.9443 25.4046 5
    endloop
  endfacet
  facet normal 0 0 1
    outer loop
      vertex 26 0 5
      vertex -3.5 12.5 5
      vertex 0 0.08765 5
    endloop
  endfacet
  facet normal 0 0 1
    outer loop
      vertex 33 26 5
      vertex -15.6504 19.3266 5
      vertex -3.5 19.5 5
    endloop
  endfacet
  facet normal 0 0 1
    outer loop
      vertex 33 26 5
      vertex 3.5 19.5 5
      vertex 33 6 5
    endloop
  endfacet
  facet normal 0 0 1
    outer loop
      vertex 33 26 5
      vertex -3.5 19.5 5
      vertex 3.5 19.5 5
    endloop
  endfacet
  facet normal 0 0 1
    outer loop
      vertex 26 6 5
      vertex 3.5 12.5 5
      vertex 26 0 5
    endloop
  endfacet
  facet normal 0 0 1
    outer loop
      vertex 3.5 19.5 5
      vertex 3.5 12.5 5
      vertex 26 6 5
    endloop
  endfacet
  facet normal 0 0 1
    outer loop
      vertex 0 31.9123 5
      vertex -1.67246 31.9123 5
      vertex -15.6504 19.3266 5
    endloop
  endfacet
  facet normal 0 0 1
    outer loop
      vertex -3.5 12.5 5
      vertex -3.5 19.5 5
      vertex -15.6504 19.3266 5
    endloop
  endfacet
  facet normal -1 0 0
    outer loop
      vertex 26 0 5
      vertex 26 0 5.19891
      vertex 26 6 5
    endloop
  endfacet
  facet normal -1 0 0
    outer loop
      vertex 26 5.55496 5.05014
      vertex 26 0 5.19891
      vertex 26 5.36841 5.19891
    endloop
  endfacet
  facet normal -1 0 0
    outer loop
      vertex 26 6 5
      vertex 26 0 5.19891
      vertex 26 5.55496 5.05014
    endloop
  endfacet
  facet normal -1 0 0
    outer loop
      vertex 26 6 5.15172
      vertex 26 6 5
      vertex 26 5.55496 5.05014
    endloop
  endfacet
  facet normal -0.19509 -4.33187e-017 0.980785
    outer loop
      vertex 26.9134 0 5.3806
      vertex 26.9134 5.14058 5.3806
      vertex 26 5.36841 5.19891
    endloop
  endfacet
  facet normal -0.19509 -4.33187e-017 0.980785
    outer loop
      vertex 26 0 5.19891
      vertex 26.9134 0 5.3806
      vertex 26 5.36841 5.19891
    endloop
  endfacet
  facet normal -0.55557 -1.23361e-016 0.83147
    outer loop
      vertex 26.9134 0 5.3806
      vertex 28.5355 0 6.46447
      vertex 28.5355 4.19806 6.46447
    endloop
  endfacet
  facet normal -0.55557 -1.23361e-016 0.83147
    outer loop
      vertex 26.9134 5.14058 5.3806
      vertex 26.9134 0 5.3806
      vertex 28.0383 4.19806 6.13223
    endloop
  endfacet
  facet normal -0.55557 -1.23361e-016 0.83147
    outer loop
      vertex 28.0383 4.19806 6.13223
      vertex 26.9134 0 5.3806
      vertex 28.5355 4.19806 6.46447
    endloop
  endfacet
  facet normal -0.83147 -1.84623e-016 0.55557
    outer loop
      vertex 29.6194 0 8.08658
      vertex 29.6194 4 8.08658
      vertex 28.5355 0 6.46447
    endloop
  endfacet
  facet normal -0.83147 -1.84623e-016 0.55557
    outer loop
      vertex 28.5355 0 6.46447
      vertex 29.6194 4 8.08658
      vertex 28.8934 4 7
    endloop
  endfacet
  facet normal -0.83147 -1.84623e-016 0.55557
    outer loop
      vertex 28.5355 0 6.46447
      vertex 28.8934 4 7
      vertex 28.8934 4.19806 7
    endloop
  endfacet
  facet normal -0.83147 -1.84623e-016 0.55557
    outer loop
      vertex 28.5355 0 6.46447
      vertex 28.8934 4.19806 7
      vertex 28.5355 4.19806 6.46447
    endloop
  endfacet
  facet normal -0.980785 -2.17778e-016 0.19509
    outer loop
      vertex 30 0 10
      vertex 30 4 10
      vertex 29.6194 0 8.08658
    endloop
  endfacet
  facet normal -0.980785 -2.17778e-016 0.19509
    outer loop
      vertex 29.6194 0 8.08658
      vertex 30 4 10
      vertex 29.6194 4 8.08658
    endloop
  endfacet
  facet normal -1 0 0
    outer loop
      vertex 30 4 20
      vertex 30 4 10
      vertex 30 0 20
    endloop
  endfacet
  facet normal -1 0 0
    outer loop
      vertex 30 0 20
      vertex 30 4 10
      vertex 30 0 10
    endloop
  endfacet
  facet normal 0 0 1
    outer loop
      vertex 33 4 20
      vertex 30 4 20
      vertex 30 0 20
    endloop
  endfacet
  facet normal 0 0 1
    outer loop
      vertex 34.247 4.43634 20
      vertex 33 4 20
      vertex 40 0 20
    endloop
  endfacet
  facet normal 0 0 1
    outer loop
      vertex 40 0 20
      vertex 33 4 20
      vertex 30 0 20
    endloop
  endfacet
  facet normal 0 0 1
    outer loop
      vertex 35 7.5 20
      vertex 35 6 20
      vertex 40 7.5 20
    endloop
  endfacet
  facet normal 0 0 1
    outer loop
      vertex 40 7.5 20
      vertex 34.247 4.43634 20
      vertex 40 0 20
    endloop
  endfacet
  facet normal 0 0 1
    outer loop
      vertex 34.247 4.43634 20
      vertex 33 4.15172 20
      vertex 33 4 20
    endloop
  endfacet
  facet normal 0 0 1
    outer loop
      vertex 35 6 20
      vertex 34.247 4.43634 20
      vertex 40 7.5 20
    endloop
  endfacet
  facet normal 0 1 0
    outer loop
      vertex 40 7.5 20
      vertex 40 7.5 10
      vertex 35 7.5 20
    endloop
  endfacet
  facet normal 0 1 0
    outer loop
      vertex 35 7.5 20
      vertex 40 7.5 10
      vertex 35 7.5 10
    endloop
  endfacet
  facet normal -8.49728e-017 0.92388 0.382683
    outer loop
      vertex 40 8.23223 8.23223
      vertex 35 8.23223 8.23223
      vertex 40 7.5 10
    endloop
  endfacet
  facet normal -8.49728e-017 0.92388 0.382683
    outer loop
      vertex 40 7.5 10
      vertex 35 8.23223 8.23223
      vertex 35 7.5 10
    endloop
  endfacet
  facet normal -2.05142e-016 0.382683 0.92388
    outer loop
      vertex 40 8.23223 8.23223
      vertex 40 10 7.5
      vertex 35 10 7.5
    endloop
  endfacet
  facet normal -2.05142e-016 0.382683 0.92388
    outer loop
      vertex 35 8.23223 8.23223
      vertex 40 8.23223 8.23223
      vertex 35 10 7.5
    endloop
  endfacet
  facet normal -2.05142e-016 -0.382683 0.92388
    outer loop
      vertex 40 10 7.5
      vertex 40 11.7678 8.23223
      vertex 35 11.7678 8.23223
    endloop
  endfacet
  facet normal -2.05142e-016 -0.382683 0.92388
    outer loop
      vertex 35 10 7.5
      vertex 40 10 7.5
      vertex 35 11.7678 8.23223
    endloop
  endfacet
  facet normal -8.49728e-017 -0.92388 0.382683
    outer loop
      vertex 40 11.7678 8.23223
      vertex 40 12.5 10
      vertex 35 12.5 10
    endloop
  endfacet
  facet normal -8.49728e-017 -0.92388 0.382683
    outer loop
      vertex 35 11.7678 8.23223
      vertex 40 11.7678 8.23223
      vertex 35 12.5 10
    endloop
  endfacet
  facet normal 0 -1 0
    outer loop
      vertex 40 12.5 10
      vertex 40 12.5 20
      vertex 35 12.5 20
    endloop
  endfacet
  facet normal 0 -1 0
    outer loop
      vertex 35 12.5 10
      vertex 40 12.5 10
      vertex 35 12.5 20
    endloop
  endfacet
  facet normal 0 0 1
    outer loop
      vertex 35 20 20
      vertex 35 12.5 20
      vertex 40 12.5 20
    endloop
  endfacet
  facet normal 0 0 1
    outer loop
      vertex 40 20 20
      vertex 35 20 20
      vertex 40 12.5 20
    endloop
  endfacet
  facet normal 0 1 0
    outer loop
      vertex 40 20 20
      vertex 40 20 10
      vertex 35 20 20
    endloop
  endfacet
  facet normal 0 1 0
    outer loop
      vertex 35 20 20
      vertex 40 20 10
      vertex 35 20 10
    endloop
  endfacet
  facet normal -8.49728e-017 0.92388 0.382683
    outer loop
      vertex 40 20.7322 8.23223
      vertex 35 20.7322 8.23223
      vertex 40 20 10
    endloop
  endfacet
  facet normal -8.49728e-017 0.92388 0.382683
    outer loop
      vertex 40 20 10
      vertex 35 20.7322 8.23223
      vertex 35 20 10
    endloop
  endfacet
  facet normal -2.05142e-016 0.382683 0.92388
    outer loop
      vertex 40 20.7322 8.23223
      vertex 40 22.5 7.5
      vertex 35 22.5 7.5
    endloop
  endfacet
  facet normal -2.05142e-016 0.382683 0.92388
    outer loop
      vertex 35 20.7322 8.23223
      vertex 40 20.7322 8.23223
      vertex 35 22.5 7.5
    endloop
  endfacet
  facet normal -2.05142e-016 -0.382683 0.92388
    outer loop
      vertex 40 22.5 7.5
      vertex 40 24.2678 8.23223
      vertex 35 24.2678 8.23223
    endloop
  endfacet
  facet normal -2.05142e-016 -0.382683 0.92388
    outer loop
      vertex 35 22.5 7.5
      vertex 40 22.5 7.5
      vertex 35 24.2678 8.23223
    endloop
  endfacet
  facet normal -8.49728e-017 -0.92388 0.382683
    outer loop
      vertex 40 24.2678 8.23223
      vertex 40 25 10
      vertex 35 25 10
    endloop
  endfacet
  facet normal -8.49728e-017 -0.92388 0.382683
    outer loop
      vertex 35 24.2678 8.23223
      vertex 40 24.2678 8.23223
      vertex 35 25 10
    endloop
  endfacet
  facet normal 0 -1 0
    outer loop
      vertex 40 25 10
      vertex 40 25 20
      vertex 35 25 20
    endloop
  endfacet
  facet normal 0 -1 0
    outer loop
      vertex 35 25 10
      vertex 40 25 10
      vertex 35 25 20
    endloop
  endfacet
  facet normal 0 0 1
    outer loop
      vertex 33 27.8483 20
      vertex 34.247 27.5637 20
      vertex 33 28 20
    endloop
  endfacet
  facet normal 0 0 1
    outer loop
      vertex 30 32 20
      vertex 30 28 20
      vertex 33 28 20
    endloop
  endfacet
  facet normal 0 0 1
    outer loop
      vertex 34.247 27.5637 20
      vertex 40 25 20
      vertex 30 32 20
    endloop
  endfacet
  facet normal 0 0 1
    outer loop
      vertex 34.247 27.5637 20
      vertex 30 32 20
      vertex 33 28 20
    endloop
  endfacet
  facet normal 0 0 1
    outer loop
      vertex 35 26 20
      vertex 40 25 20
      vertex 34.247 27.5637 20
    endloop
  endfacet
  facet normal 0 0 1
    outer loop
      vertex 35 25 20
      vertex 40 25 20
      vertex 35 26 20
    endloop
  endfacet
  facet normal 0 0 1
    outer loop
      vertex 40 25 20
      vertex 40 32 20
      vertex 30 32 20
    endloop
  endfacet
  facet normal -1 0 0
    outer loop
      vertex 30 32 20
      vertex 30 32 10
      vertex 30 28 20
    endloop
  endfacet
  facet normal -1 0 0
    outer loop
      vertex 30 28 20
      vertex 30 32 10
      vertex 30 28 10
    endloop
  endfacet
  facet normal -0.980785 -2.17778e-016 0.19509
    outer loop
      vertex 30 28 10
      vertex 30 32 10
      vertex 29.6194 28 8.08658
    endloop
  endfacet
  facet normal -0.980785 -2.17778e-016 0.19509
    outer loop
      vertex 29.6194 28 8.08658
      vertex 30 32 10
      vertex 29.6194 32 8.08658
    endloop
  endfacet
  facet normal -0.83147 -1.84623e-016 0.55557
    outer loop
      vertex 29.6194 32 8.08658
      vertex 28.8934 28 7
      vertex 29.6194 28 8.08658
    endloop
  endfacet
  facet normal -0.83147 -1.84623e-016 0.55557
    outer loop
      vertex 28.5355 27.7421 6.46447
      vertex 28.8934 28 7
      vertex 29.6194 32 8.08658
    endloop
  endfacet
  facet normal -0.83147 -1.84623e-016 0.55557
    outer loop
      vertex 28.5355 27.7421 6.46447
      vertex 29.6194 32 8.08658
      vertex 28.5355 32 6.46447
    endloop
  endfacet
  facet normal -0.55557 -1.23361e-016 0.83147
    outer loop
      vertex 26.9134 27.0028 5.3806
      vertex 26.9968 27.247 5.43634
      vertex 28.5355 32 6.46447
    endloop
  endfacet
  facet normal -0.55557 -1.23361e-016 0.83147
    outer loop
      vertex 28.5355 32 6.46447
      vertex 26.9968 27.247 5.43634
      vertex 28.5355 27.7421 6.46447
    endloop
  endfacet
  facet normal -0.55557 -1.23361e-016 0.83147
    outer loop
      vertex 26.9134 27.0028 5.3806
      vertex 28.5355 32 6.46447
      vertex 26.9134 32 5.3806
    endloop
  endfacet
  facet normal -0.19509 -4.33187e-017 0.980785
    outer loop
      vertex 26.9134 27.0028 5.3806
      vertex 26.9134 32 5.3806
      vertex 26 32 5.19891
    endloop
  endfacet
  facet normal -0.19509 -4.33187e-017 0.980785
    outer loop
      vertex 26 26.2068 5.19891
      vertex 26.9134 27.0028 5.3806
      vertex 26 32 5.19891
    endloop
  endfacet
  facet normal -1 0 0
    outer loop
      vertex 26 26 5
      vertex 26 26 5.15172
      vertex 26 32 5
    endloop
  endfacet
  facet normal -1 0 0
    outer loop
      vertex 26 32 5
      vertex 26 26 5.15172
      vertex 26 26.2068 5.19891
    endloop
  endfacet
  facet normal -1 0 0
    outer loop
      vertex 26 32 5
      vertex 26 26.2068 5.19891
      vertex 26 32 5.19891
    endloop
  endfacet
  facet normal 0 -1 0
    outer loop
      vertex 26 26 5
      vertex 33 26 5
      vertex 26 26 5.15172
    endloop
  endfacet
  facet normal 0 -1 0
    outer loop
      vertex 26 26 5.15172
      vertex 33 26 5
      vertex 32.6849 26 5.15172
    endloop
  endfacet
  facet normal 0 1 0
    outer loop
      vertex 33 6 5.15172
      vertex 33 6 5
      vertex 26 6 5.15172
    endloop
  endfacet
  facet normal 0 1 0
    outer loop
      vertex 26 6 5.15172
      vertex 33 6 5
      vertex 26 6 5
    endloop
  endfacet
  facet normal -1 0 0
    outer loop
      vertex -3.5 12.5 5
      vertex -3.5 12.5 13
      vertex -3.5 19.5 5
    endloop
  endfacet
  facet normal -1 0 0
    outer loop
      vertex -3.5 19.5 5
      vertex -3.5 12.5 13
      vertex -3.5 19.5 13
    endloop
  endfacet
  facet normal 0 -1 0
    outer loop
      vertex -3.5 12.5 13
      vertex -3.5 12.5 5
      vertex 3.5 12.5 5
    endloop
  endfacet
  facet normal 0 -1 0
    outer loop
      vertex 3.5 12.5 13
      vertex -3.5 12.5 13
      vertex 3.5 12.5 5
    endloop
  endfacet
  facet normal 1 0 0
    outer loop
      vertex 3.5 12.5 13
      vertex 3.5 12.5 5
      vertex 3.5 19.5 5
    endloop
  endfacet
  facet normal 1 0 0
    outer loop
      vertex 3.5 19.5 13
      vertex 3.5 12.5 13
      vertex 3.5 19.5 5
    endloop
  endfacet
  facet normal 0 1 0
    outer loop
      vertex -3.5 19.5 5
      vertex -3.5 19.5 13
      vertex 3.5 19.5 5
    endloop
  endfacet
  facet normal 0 1 0
    outer loop
      vertex 3.5 19.5 5
      vertex -3.5 19.5 13
      vertex 3.5 19.5 13
    endloop
  endfacet
  facet normal -2.65887e-016 -0.222521 0.974928
    outer loop
      vertex 26 6 5.15172
      vertex 33 5.55496 5.05014
      vertex 33 6 5.15172
    endloop
  endfacet
  facet normal -2.65887e-016 -0.222521 0.974928
    outer loop
      vertex 26 5.55496 5.05014
      vertex 33 5.55496 5.05014
      vertex 26 6 5.15172
    endloop
  endfacet
  facet normal -3.51588e-017 0.62349 0.781831
    outer loop
      vertex 26.9134 5.14058 5.3806
      vertex 28.0383 4.19806 6.13223
      vertex 33 4.19806 6.13223
    endloop
  endfacet
  facet normal -3.51588e-017 0.62349 0.781831
    outer loop
      vertex 32.6916 4.64898 5.77264
      vertex 26.9134 5.14058 5.3806
      vertex 33 4.19806 6.13223
    endloop
  endfacet
  facet normal -3.51588e-017 0.62349 0.781831
    outer loop
      vertex 33 4.91657 5.55924
      vertex 32.6916 4.64898 5.77264
      vertex 33 4.19806 6.13223
    endloop
  endfacet
  facet normal -3.51588e-017 0.62349 0.781831
    outer loop
      vertex 32.6126 5.42693 5.15224
      vertex 26.9134 5.14058 5.3806
      vertex 32.631 5.24644 5.29618
    endloop
  endfacet
  facet normal -3.51588e-017 0.62349 0.781831
    outer loop
      vertex 33 5.55496 5.05014
      vertex 26.9134 5.14058 5.3806
      vertex 32.6126 5.42693 5.15224
    endloop
  endfacet
  facet normal -3.51588e-017 0.62349 0.781831
    outer loop
      vertex 33 5.55496 5.05014
      vertex 32.6126 5.42693 5.15224
      vertex 33 5.42693 5.15224
    endloop
  endfacet
  facet normal -3.51588e-017 0.62349 0.781831
    outer loop
      vertex 26 5.55496 5.05014
      vertex 26.9134 5.14058 5.3806
      vertex 33 5.55496 5.05014
    endloop
  endfacet
  facet normal -3.51588e-017 0.62349 0.781831
    outer loop
      vertex 32.6916 4.64898 5.77264
      vertex 32.631 5.24644 5.29618
      vertex 26.9134 5.14058 5.3806
    endloop
  endfacet
  facet normal -3.51588e-017 0.62349 0.781831
    outer loop
      vertex 26 5.36841 5.19891
      vertex 26.9134 5.14058 5.3806
      vertex 26 5.55496 5.05014
    endloop
  endfacet
  facet normal 2.22045e-016 1 4.93038e-032
    outer loop
      vertex 28.8934 4.19806 7
      vertex 33 4.19806 7
      vertex 28.5355 4.19806 6.46447
    endloop
  endfacet
  facet normal 2.22045e-016 1 4.93038e-032
    outer loop
      vertex 28.5355 4.19806 6.46447
      vertex 33 4.19806 7
      vertex 33 4.19806 6.13223
    endloop
  endfacet
  facet normal 2.22045e-016 1 4.93038e-032
    outer loop
      vertex 28.5355 4.19806 6.46447
      vertex 33 4.19806 6.13223
      vertex 28.0383 4.19806 6.13223
    endloop
  endfacet
  facet normal 0 0 1
    outer loop
      vertex 28.8934 4 7
      vertex 33 4 7
      vertex 33 4.15172 7
    endloop
  endfacet
  facet normal 0 0 1
    outer loop
      vertex 34.8478 6 7
      vertex 35 6 7
      vertex 34.8483 6 7
    endloop
  endfacet
  facet normal 0 0 1
    outer loop
      vertex 34.247 27.5637 7
      vertex 33 27.8483 7
      vertex 33 27.7076 7
    endloop
  endfacet
  facet normal 0 0 1
    outer loop
      vertex 34.247 27.5637 7
      vertex 33 27.7076 7
      vertex 34.1521 27.4446 7
    endloop
  endfacet
  facet normal 0 0 1
    outer loop
      vertex 34.8478 6 7
      vertex 34.1521 4.55536 7
      vertex 35 6 7
    endloop
  endfacet
  facet normal 0 0 1
    outer loop
      vertex 34.8483 26 7
      vertex 34.247 27.5637 7
      vertex 34.8478 26 7
    endloop
  endfacet
  facet normal 0 0 1
    outer loop
      vertex 35 26 7
      vertex 34.247 27.5637 7
      vertex 34.8483 26 7
    endloop
  endfacet
  facet normal 0 0 1
    outer loop
      vertex 34.1521 4.55536 7
      vertex 33 4.29241 7
      vertex 34.247 4.43634 7
    endloop
  endfacet
  facet normal 0 0 1
    outer loop
      vertex 35 6 7
      vertex 35 26 7
      vertex 34.8483 6 7
    endloop
  endfacet
  facet normal 0 0 1
    outer loop
      vertex 34.247 4.43634 7
      vertex 35 6 7
      vertex 34.1521 4.55536 7
    endloop
  endfacet
  facet normal 0 0 1
    outer loop
      vertex 34.247 4.43634 7
      vertex 33 4.19806 7
      vertex 33 4.15172 7
    endloop
  endfacet
  facet normal 0 0 1
    outer loop
      vertex 34.247 4.43634 7
      vertex 33 4.29241 7
      vertex 33 4.19806 7
    endloop
  endfacet
  facet normal 0 0 1
    outer loop
      vertex 34.1521 27.4446 7
      vertex 34.8478 26 7
      vertex 34.247 27.5637 7
    endloop
  endfacet
  facet normal 0 0 1
    outer loop
      vertex 34.8483 26 7
      vertex 34.8483 6 7
      vertex 35 26 7
    endloop
  endfacet
  facet normal 0 0 1
    outer loop
      vertex 33 4.19806 7
      vertex 28.8934 4 7
      vertex 33 4.15172 7
    endloop
  endfacet
  facet normal 0 0 1
    outer loop
      vertex 33 4.19806 7
      vertex 28.8934 4.19806 7
      vertex 28.8934 4 7
    endloop
  endfacet
  facet normal 0 1 0
    outer loop
      vertex 33 4 7
      vertex 28.8934 4 7
      vertex 29.6194 4 8.08658
    endloop
  endfacet
  facet normal 0 1 0
    outer loop
      vertex 30 4 10
      vertex 30 4 20
      vertex 33 4 20
    endloop
  endfacet
  facet normal 0 1 0
    outer loop
      vertex 30 4 10
      vertex 33 4 20
      vertex 29.6194 4 8.08658
    endloop
  endfacet
  facet normal 0 1 0
    outer loop
      vertex 33 4 20
      vertex 33 4 7
      vertex 29.6194 4 8.08658
    endloop
  endfacet
  facet normal -1 0 0
    outer loop
      vertex 33 4.15172 20
      vertex 33 4.15172 7
      vertex 33 4 20
    endloop
  endfacet
  facet normal -1 0 0
    outer loop
      vertex 33 4 20
      vertex 33 4.15172 7
      vertex 33 4 7
    endloop
  endfacet
  facet normal -0.222521 0.974928 0
    outer loop
      vertex 34.247 4.43634 20
      vertex 34.247 4.43634 7
      vertex 33 4.15172 20
    endloop
  endfacet
  facet normal -0.222521 0.974928 0
    outer loop
      vertex 33 4.15172 20
      vertex 34.247 4.43634 7
      vertex 33 4.15172 7
    endloop
  endfacet
  facet normal -0.900969 0.433884 0
    outer loop
      vertex 35 6 20
      vertex 35 6 7
      vertex 34.247 4.43634 20
    endloop
  endfacet
  facet normal -0.900969 0.433884 0
    outer loop
      vertex 34.247 4.43634 20
      vertex 35 6 7
      vertex 34.247 4.43634 7
    endloop
  endfacet
  facet normal -1 0 0
    outer loop
      vertex 35 7.5 20
      vertex 35 7.5 10
      vertex 35 6 20
    endloop
  endfacet
  facet normal -1 0 0
    outer loop
      vertex 35 6 20
      vertex 35 7.5 10
      vertex 35 6 7
    endloop
  endfacet
  facet normal -1 0 0
    outer loop
      vertex 35 7.5 10
      vertex 35 8.23223 8.23223
      vertex 35 6 7
    endloop
  endfacet
  facet normal -1 0 0
    outer loop
      vertex 35 20 10
      vertex 35 11.7678 8.23223
      vertex 35 20 20
    endloop
  endfacet
  facet normal -1 0 0
    outer loop
      vertex 35 20 20
      vertex 35 12.5 10
      vertex 35 12.5 20
    endloop
  endfacet
  facet normal -1 0 0
    outer loop
      vertex 35 11.7678 8.23223
      vertex 35 12.5 10
      vertex 35 20 20
    endloop
  endfacet
  facet normal -1 0 0
    outer loop
      vertex 35 10 7.5
      vertex 35 11.7678 8.23223
      vertex 35 20 10
    endloop
  endfacet
  facet normal -1 0 0
    outer loop
      vertex 35 20.7322 8.23223
      vertex 35 10 7.5
      vertex 35 20 10
    endloop
  endfacet
  facet normal -1 0 0
    outer loop
      vertex 35 6 7
      vertex 35 10 7.5
      vertex 35 26 7
    endloop
  endfacet
  facet normal -1 0 0
    outer loop
      vertex 35 10 7.5
      vertex 35 20.7322 8.23223
      vertex 35 22.5 7.5
    endloop
  endfacet
  facet normal -1 0 0
    outer loop
      vertex 35 10 7.5
      vertex 35 22.5 7.5
      vertex 35 26 7
    endloop
  endfacet
  facet normal -1 0 0
    outer loop
      vertex 35 22.5 7.5
      vertex 35 24.2678 8.23223
      vertex 35 26 7
    endloop
  endfacet
  facet normal -1 0 0
    outer loop
      vertex 35 26 20
      vertex 35 25 10
      vertex 35 25 20
    endloop
  endfacet
  facet normal -1 0 0
    outer loop
      vertex 35 26 7
      vertex 35 25 10
      vertex 35 26 20
    endloop
  endfacet
  facet normal -1 0 0
    outer loop
      vertex 35 24.2678 8.23223
      vertex 35 25 10
      vertex 35 26 7
    endloop
  endfacet
  facet normal -1 0 0
    outer loop
      vertex 35 8.23223 8.23223
      vertex 35 10 7.5
      vertex 35 6 7
    endloop
  endfacet
  facet normal -0.900969 -0.433884 0
    outer loop
      vertex 35 26 20
      vertex 34.247 27.5637 20
      vertex 35 26 7
    endloop
  endfacet
  facet normal -0.900969 -0.433884 0
    outer loop
      vertex 35 26 7
      vertex 34.247 27.5637 20
      vertex 34.247 27.5637 7
    endloop
  endfacet
  facet normal -0.222521 -0.974928 0
    outer loop
      vertex 33 27.8483 7.31505
      vertex 33 27.8483 7
      vertex 34.247 27.5637 7
    endloop
  endfacet
  facet normal -0.222521 -0.974928 0
    outer loop
      vertex 33 27.8483 20
      vertex 33 27.8483 7.31505
      vertex 34.247 27.5637 20
    endloop
  endfacet
  facet normal -0.222521 -0.974928 0
    outer loop
      vertex 34.247 27.5637 20
      vertex 33 27.8483 7.31505
      vertex 34.247 27.5637 7
    endloop
  endfacet
  facet normal -1 0 0
    outer loop
      vertex 33 28 20
      vertex 33 28 7
      vertex 33 27.8483 20
    endloop
  endfacet
  facet normal -1 0 0
    outer loop
      vertex 33 27.8483 7.31505
      vertex 33 27.8483 20
      vertex 33 28 7
    endloop
  endfacet
  facet normal 0 -1 0
    outer loop
      vertex 33 28 7
      vertex 33 28 20
      vertex 30 28 20
    endloop
  endfacet
  facet normal 0 -1 0
    outer loop
      vertex 30 28 10
      vertex 33 28 7
      vertex 30 28 20
    endloop
  endfacet
  facet normal 0 -1 0
    outer loop
      vertex 29.6194 28 8.08658
      vertex 33 28 7
      vertex 30 28 10
    endloop
  endfacet
  facet normal 0 -1 0
    outer loop
      vertex 28.8934 28 7
      vertex 33 28 7
      vertex 29.6194 28 8.08658
    endloop
  endfacet
  facet normal -2.96397e-016 -0.900969 0.433884
    outer loop
      vertex 32.3756 27.6314 6.23463
      vertex 28.8934 28 7
      vertex 33 27.247 5.43634
    endloop
  endfacet
  facet normal -2.96397e-016 -0.900969 0.433884
    outer loop
      vertex 33 27.247 5.43634
      vertex 33 27.5485 6.06253
      vertex 32.6655 27.4655 5.89003
    endloop
  endfacet
  facet normal -2.96397e-016 -0.900969 0.433884
    outer loop
      vertex 32.5888 27.8014 6.58767
      vertex 28.8934 28 7
      vertex 32.3756 27.6314 6.23463
    endloop
  endfacet
  facet normal -2.96397e-016 -0.900969 0.433884
    outer loop
      vertex 32.5389 27.5379 6.04054
      vertex 33 27.247 5.43634
      vertex 32.6655 27.4655 5.89003
    endloop
  endfacet
  facet normal -2.96397e-016 -0.900969 0.433884
    outer loop
      vertex 32.5389 27.5379 6.04054
      vertex 32.3756 27.6314 6.23463
      vertex 33 27.247 5.43634
    endloop
  endfacet
  facet normal -2.96397e-016 -0.900969 0.433884
    outer loop
      vertex 28.5355 27.7421 6.46447
      vertex 26.9968 27.247 5.43634
      vertex 33 27.247 5.43634
    endloop
  endfacet
  facet normal -2.96397e-016 -0.900969 0.433884
    outer loop
      vertex 33 27.7076 6.3928
      vertex 33 28 7
      vertex 32.5888 27.8014 6.58767
    endloop
  endfacet
  facet normal -2.96397e-016 -0.900969 0.433884
    outer loop
      vertex 28.8934 28 7
      vertex 28.5355 27.7421 6.46447
      vertex 33 27.247 5.43634
    endloop
  endfacet
  facet normal -2.96397e-016 -0.900969 0.433884
    outer loop
      vertex 33 28 7
      vertex 28.8934 28 7
      vertex 32.5888 27.8014 6.58767
    endloop
  endfacet
  facet normal -2.65887e-016 -0.222521 0.974928
    outer loop
      vertex 33 26.0023 5.15224
      vertex 32.6849 26 5.15172
      vertex 33 26 5.15172
    endloop
  endfacet
  facet normal -2.65887e-016 -0.222521 0.974928
    outer loop
      vertex 32.3104 26.0023 5.15224
      vertex 32.6849 26 5.15172
      vertex 33 26.0023 5.15224
    endloop
  endfacet
  facet normal -2.65887e-016 -0.222521 0.974928
    outer loop
      vertex 26 26 5.15172
      vertex 32.6849 26 5.15172
      vertex 32.3104 26.0023 5.15224
    endloop
  endfacet
  facet normal -2.65887e-016 -0.222521 0.974928
    outer loop
      vertex 26.9968 27.247 5.43634
      vertex 32.3104 26.0023 5.15224
      vertex 32.2352 26.3683 5.23579
    endloop
  endfacet
  facet normal -2.65887e-016 -0.222521 0.974928
    outer loop
      vertex 32.7811 26.9591 5.37063
      vertex 32.2352 26.3683 5.23579
      vertex 32.3385 26.4801 5.26131
    endloop
  endfacet
  facet normal -2.65887e-016 -0.222521 0.974928
    outer loop
      vertex 33 27.247 5.43634
      vertex 32.2352 26.3683 5.23579
      vertex 32.7811 26.9591 5.37063
    endloop
  endfacet
  facet normal -2.65887e-016 -0.222521 0.974928
    outer loop
      vertex 33 27.247 5.43634
      vertex 32.7811 26.9591 5.37063
      vertex 33 26.8958 5.35618
    endloop
  endfacet
  facet normal -2.65887e-016 -0.222521 0.974928
    outer loop
      vertex 26.9968 27.247 5.43634
      vertex 32.2352 26.3683 5.23579
      vertex 33 27.247 5.43634
    endloop
  endfacet
  facet normal -2.65887e-016 -0.222521 0.974928
    outer loop
      vertex 26.9134 27.0028 5.3806
      vertex 32.3104 26.0023 5.15224
      vertex 26.9968 27.247 5.43634
    endloop
  endfacet
  facet normal -2.65887e-016 -0.222521 0.974928
    outer loop
      vertex 26 26.2068 5.19891
      vertex 32.3104 26.0023 5.15224
      vertex 26.9134 27.0028 5.3806
    endloop
  endfacet
  facet normal -2.65887e-016 -0.222521 0.974928
    outer loop
      vertex 26 26 5.15172
      vertex 32.3104 26.0023 5.15224
      vertex 26 26.2068 5.19891
    endloop
  endfacet
  facet normal -2.22045e-016 1 -4.93038e-032
    outer loop
      vertex 33 6 5.15172
      vertex 33 6 5.15224
      vertex 33.3161 6 5.15224
    endloop
  endfacet
  facet normal -2.22045e-016 1 -4.93038e-032
    outer loop
      vertex 33 6 5.15172
      vertex 33.3161 6 5.15224
      vertex 33 6 5
    endloop
  endfacet
  facet normal 0 0 1
    outer loop
      vertex -0.445042 14.0501 13
      vertex -3.5 12.5 13
      vertex 3.5 12.5 13
    endloop
  endfacet
  facet normal 0 0 1
    outer loop
      vertex -3.5 19.5 13
      vertex -3.5 12.5 13
      vertex -1.80194 15.1322 13
    endloop
  endfacet
  facet normal 0 0 1
    outer loop
      vertex -3.5 19.5 13
      vertex -1.80194 15.1322 13
      vertex -1.80194 16.8678 13
    endloop
  endfacet
  facet normal 0 0 1
    outer loop
      vertex 3.5 19.5 13
      vertex -3.5 19.5 13
      vertex -0.445042 17.9499 13
    endloop
  endfacet
  facet normal 0 0 1
    outer loop
      vertex 1.24698 14.4363 13
      vertex -0.445042 14.0501 13
      vertex 3.5 12.5 13
    endloop
  endfacet
  facet normal 0 0 1
    outer loop
      vertex 3.5 19.5 13
      vertex -0.445042 17.9499 13
      vertex 1.24698 17.5637 13
    endloop
  endfacet
  facet normal 0 0 1
    outer loop
      vertex 3.5 19.5 13
      vertex 2 16 13
      vertex 3.5 12.5 13
    endloop
  endfacet
  facet normal 0 0 1
    outer loop
      vertex 3.5 19.5 13
      vertex 1.24698 17.5637 13
      vertex 2 16 13
    endloop
  endfacet
  facet normal 0 0 1
    outer loop
      vertex 2 16 13
      vertex 1.24698 14.4363 13
      vertex 3.5 12.5 13
    endloop
  endfacet
  facet normal 0 0 1
    outer loop
      vertex -1.80194 15.1322 13
      vertex -3.5 12.5 13
      vertex -0.445042 14.0501 13
    endloop
  endfacet
  facet normal 0 0 1
    outer loop
      vertex -1.80194 16.8678 13
      vertex -0.445042 17.9499 13
      vertex -3.5 19.5 13
    endloop
  endfacet
  facet normal -1 2.22045e-016 -2.22045e-016
    outer loop
      vertex 33 6 5.15172
      vertex 33 5.55496 5.05014
      vertex 33 6 5.15224
    endloop
  endfacet
  facet normal -1 2.22045e-016 -2.22045e-016
    outer loop
      vertex 33 6 5.15224
      vertex 33 5.55496 5.05014
      vertex 33 5.42693 5.15224
    endloop
  endfacet
  facet normal 0 0 1
    outer loop
      vertex 32.8297 5.25382 5.15224
      vertex 33.4772 5.40161 5.15224
      vertex 33.7654 6 5.15224
    endloop
  endfacet
  facet normal 0 0 1
    outer loop
      vertex 33 5.42693 5.15224
      vertex 32.6126 5.42693 5.15224
      vertex 32.8297 5.25382 5.15224
    endloop
  endfacet
  facet normal 0 0 1
    outer loop
      vertex 33 5.42693 5.15224
      vertex 32.8297 5.25382 5.15224
      vertex 33.7654 6 5.15224
    endloop
  endfacet
  facet normal 0 0 1
    outer loop
      vertex 33.4772 6.59839 5.15224
      vertex 33.3161 6 5.15224
      vertex 33.7654 6 5.15224
    endloop
  endfacet
  facet normal 0 0 1
    outer loop
      vertex 33.3161 6 5.15224
      vertex 33 5.42693 5.15224
      vertex 33.7654 6 5.15224
    endloop
  endfacet
  facet normal 0 0 1
    outer loop
      vertex 33 6 5.15224
      vertex 33 5.42693 5.15224
      vertex 33.3161 6 5.15224
    endloop
  endfacet
  facet normal 0 0 1
    outer loop
      vertex 33.3161 6.63515 5.15224
      vertex 33.3161 6 5.15224
      vertex 33.4772 6.59839 5.15224
    endloop
  endfacet
  facet normal 0.463213 0.580851 0.669362
    outer loop
      vertex 32.631 5.24644 5.29618
      vertex 32.8297 5.25382 5.15224
      vertex 32.6126 5.42693 5.15224
    endloop
  endfacet
  facet normal 0.463213 0.580851 0.669362
    outer loop
      vertex 32.6916 4.64898 5.77264
      vertex 32.8297 5.25382 5.15224
      vertex 32.631 5.24644 5.29618
    endloop
  endfacet
  facet normal -0.165319 0.724309 0.669362
    outer loop
      vertex 33 4.75538 5.73366
      vertex 33.4772 5.40161 5.15224
      vertex 33 4.91657 5.55924
    endloop
  endfacet
  facet normal -0.165319 0.724309 0.669362
    outer loop
      vertex 33 4.91657 5.55924
      vertex 33.4772 5.40161 5.15224
      vertex 32.8297 5.25382 5.15224
    endloop
  endfacet
  facet normal -0.165319 0.724309 0.669362
    outer loop
      vertex 33 4.91657 5.55924
      vertex 32.8297 5.25382 5.15224
      vertex 32.6916 4.64898 5.77264
    endloop
  endfacet
  facet normal -1 2.22045e-016 -2.22045e-016
    outer loop
      vertex 33 4.29241 6.23463
      vertex 33 4.75538 5.73366
      vertex 33 4.91657 5.55924
    endloop
  endfacet
  facet normal -1 2.22045e-016 -2.22045e-016
    outer loop
      vertex 33 4.29241 6.23463
      vertex 33 4.91657 5.55924
      vertex 33 4.19806 6.13223
    endloop
  endfacet
  facet normal -1 2.22045e-016 -2.22045e-016
    outer loop
      vertex 33 4.29241 6.23463
      vertex 33 4.19806 6.13223
      vertex 33 4.29241 7
    endloop
  endfacet
  facet normal -1 2.22045e-016 -2.22045e-016
    outer loop
      vertex 33 4.19806 6.13223
      vertex 33 4.19806 7
      vertex 33 4.29241 7
    endloop
  endfacet
  facet normal -0.222521 0.974928 0
    outer loop
      vertex 34.1521 4.55536 6.23463
      vertex 33 4.29241 6.23463
      vertex 34.1521 4.55536 7
    endloop
  endfacet
  facet normal -0.222521 0.974928 0
    outer loop
      vertex 34.1521 4.55536 7
      vertex 33 4.29241 6.23463
      vertex 33 4.29241 7
    endloop
  endfacet
  facet normal -0.900969 0.433884 0
    outer loop
      vertex 34.8478 6 7
      vertex 34.8478 6 6.23463
      vertex 34.1521 4.55536 7
    endloop
  endfacet
  facet normal -0.900969 0.433884 0
    outer loop
      vertex 34.1521 4.55536 7
      vertex 34.8478 6 6.23463
      vertex 34.1521 4.55536 6.23463
    endloop
  endfacet
  facet normal -0.900969 -0.433884 0
    outer loop
      vertex 34.8478 6 6.23463
      vertex 34.8478 6 7
      vertex 34.8478 6 6.99773
    endloop
  endfacet
  facet normal -0.900969 -0.433884 0
    outer loop
      vertex 34.8478 6 6.23463
      vertex 34.8478 6 6.99773
      vertex 34.6736 6.36167 6.23463
    endloop
  endfacet
  facet normal -2.22045e-016 1 -4.93038e-032
    outer loop
      vertex 34.8483 6 7
      vertex 34.8478 6 6.99773
      vertex 34.8478 6 7
    endloop
  endfacet
  facet normal -0.974928 -2.16477e-016 0.222521
    outer loop
      vertex 34.6221 6 6.00895
      vertex 34.6353 6.09276 6.06684
      vertex 34.5637 6 5.75302
    endloop
  endfacet
  facet normal -0.974928 -2.16477e-016 0.222521
    outer loop
      vertex 34.5637 6 5.75302
      vertex 34.6353 6.09276 6.06684
      vertex 34.6736 6.36167 6.23463
    endloop
  endfacet
  facet normal -0.974928 -2.16477e-016 0.222521
    outer loop
      vertex 34.6736 6.36167 6.23463
      vertex 34.8478 6 6.99773
      vertex 34.8483 6 7
    endloop
  endfacet
  facet normal -0.974928 -2.16477e-016 0.222521
    outer loop
      vertex 34.6736 6.36167 6.23463
      vertex 34.8483 6 7
      vertex 34.8483 26 7
    endloop
  endfacet
  facet normal -0.974928 -2.16477e-016 0.222521
    outer loop
      vertex 34.6736 6.36167 6.23463
      vertex 34.8483 26 7
      vertex 34.5637 6 5.75302
    endloop
  endfacet
  facet normal -0.974928 -2.16477e-016 0.222521
    outer loop
      vertex 34.5637 6 5.75302
      vertex 34.8483 26 7
      vertex 34.8478 26 6.99773
    endloop
  endfacet
  facet normal -0.974928 -2.16477e-016 0.222521
    outer loop
      vertex 34.5637 6 5.75302
      vertex 34.6736 25.6383 6.23463
      vertex 34.6221 26 6.00895
    endloop
  endfacet
  facet normal -0.974928 -2.16477e-016 0.222521
    outer loop
      vertex 34.6221 26 6.00895
      vertex 34.5637 26 5.75302
      vertex 34.5637 6 5.75302
    endloop
  endfacet
  facet normal -0.974928 -2.16477e-016 0.222521
    outer loop
      vertex 34.6736 25.6383 6.23463
      vertex 34.5637 6 5.75302
      vertex 34.8478 26 6.99773
    endloop
  endfacet
  facet normal 2.22045e-016 -1 4.93038e-032
    outer loop
      vertex 34.8478 26 6.99773
      vertex 34.8483 26 7
      vertex 34.8478 26 7
    endloop
  endfacet
  facet normal -0.900969 -0.433884 0
    outer loop
      vertex 34.1521 27.4446 7
      vertex 34.8478 26 6.99773
      vertex 34.8478 26 7
    endloop
  endfacet
  facet normal -0.900969 -0.433884 0
    outer loop
      vertex 34.8478 26 6.23463
      vertex 34.8478 26 6.99773
      vertex 34.1521 27.4446 7
    endloop
  endfacet
  facet normal -0.900969 -0.433884 0
    outer loop
      vertex 34.8478 26 6.23463
      vertex 34.1521 27.4446 7
      vertex 34.1521 27.4446 6.23463
    endloop
  endfacet
  facet normal -0.222521 -0.974928 0
    outer loop
      vertex 34.1521 27.4446 6.23463
      vertex 34.1521 27.4446 7
      vertex 33 27.7076 7
    endloop
  endfacet
  facet normal -0.222521 -0.974928 0
    outer loop
      vertex 32.5888 27.8014 6.23463
      vertex 34.1521 27.4446 6.23463
      vertex 33 27.7076 6.3928
    endloop
  endfacet
  facet normal -0.222521 -0.974928 0
    outer loop
      vertex 33 27.7076 6.3928
      vertex 34.1521 27.4446 6.23463
      vertex 33 27.7076 7
    endloop
  endfacet
  facet normal -0.222521 -0.974928 0
    outer loop
      vertex 32.5888 27.8014 6.23463
      vertex 33 27.7076 6.3928
      vertex 32.5888 27.8014 6.58767
    endloop
  endfacet
  facet normal -1 2.22045e-016 -2.22045e-016
    outer loop
      vertex 33 27.7076 6.3928
      vertex 33 27.8483 7
      vertex 33 28 7
    endloop
  endfacet
  facet normal -1 2.22045e-016 -2.22045e-016
    outer loop
      vertex 33 27.7076 6.3928
      vertex 33 27.7076 7
      vertex 33 27.8483 7
    endloop
  endfacet
  facet normal -1 2.22045e-016 -2.22045e-016
    outer loop
      vertex 33 27.8483 7.31505
      vertex 33 28 7
      vertex 33 27.8483 7
    endloop
  endfacet
  facet normal -1 2.22045e-016 -2.22045e-016
    outer loop
      vertex 33 27.247 5.43634
      vertex 33 26.8958 5.35618
      vertex 33 27.5485 6.06253
    endloop
  endfacet
  facet normal 0.62349 -0.781831 0
    outer loop
      vertex 32.5888 27.8014 6.23463
      vertex 32.5888 27.8014 6.58767
      vertex 32.3756 27.6314 6.23463
    endloop
  endfacet
  facet normal 0.463213 -0.580851 0.669362
    outer loop
      vertex 32.5389 27.5379 6.04054
      vertex 32.5888 27.8014 6.23463
      vertex 32.3756 27.6314 6.23463
    endloop
  endfacet
  facet normal 0.463213 -0.580851 0.669362
    outer loop
      vertex 32.6655 27.4655 5.89003
      vertex 32.5888 27.8014 6.23463
      vertex 32.5389 27.5379 6.04054
    endloop
  endfacet
  facet normal -0.165319 -0.724309 0.669362
    outer loop
      vertex 34.1521 27.4446 6.23463
      vertex 33 27.5485 6.06253
      vertex 33 26.8958 5.35618
    endloop
  endfacet
  facet normal -0.165319 -0.724309 0.669362
    outer loop
      vertex 32.6655 27.4655 5.89003
      vertex 33 27.5485 6.06253
      vertex 32.5888 27.8014 6.23463
    endloop
  endfacet
  facet normal -0.165319 -0.724309 0.669362
    outer loop
      vertex 32.7811 26.9591 5.37063
      vertex 32.8297 26.7462 5.15224
      vertex 33 26.8958 5.35618
    endloop
  endfacet
  facet normal -0.165319 -0.724309 0.669362
    outer loop
      vertex 32.8297 26.7462 5.15224
      vertex 34.1521 27.4446 6.23463
      vertex 33 26.8958 5.35618
    endloop
  endfacet
  facet normal -0.165319 -0.724309 0.669362
    outer loop
      vertex 34.1521 27.4446 6.23463
      vertex 32.5888 27.8014 6.23463
      vertex 33 27.5485 6.06253
    endloop
  endfacet
  facet normal 0.463213 -0.580851 0.669362
    outer loop
      vertex 32.8297 26.7462 5.15224
      vertex 32.7811 26.9591 5.37063
      vertex 32.3385 26.4801 5.26131
    endloop
  endfacet
  facet normal 0.463213 -0.580851 0.669362
    outer loop
      vertex 32.3104 26.3321 5.15224
      vertex 32.8297 26.7462 5.15224
      vertex 32.3385 26.4801 5.26131
    endloop
  endfacet
  facet normal 0.463213 -0.580851 0.669362
    outer loop
      vertex 32.3104 26.3321 5.15224
      vertex 32.3385 26.4801 5.26131
      vertex 32.2352 26.3683 5.23579
    endloop
  endfacet
  facet normal 0.742936 0 0.669362
    outer loop
      vertex 32.3104 26.0023 5.15224
      vertex 32.3104 26.3321 5.15224
      vertex 32.2352 26.3683 5.23579
    endloop
  endfacet
  facet normal 0 0 1
    outer loop
      vertex 33 26.0023 5.15224
      vertex 33 26 5.15224
      vertex 33.3161 26 5.15224
    endloop
  endfacet
  facet normal 0 0 1
    outer loop
      vertex 33.7654 26 5.15224
      vertex 33 26.0023 5.15224
      vertex 33.3161 26 5.15224
    endloop
  endfacet
  facet normal 0 0 1
    outer loop
      vertex 33.3161 25.3648 5.15224
      vertex 33.4772 25.4016 5.15224
      vertex 33.3161 26 5.15224
    endloop
  endfacet
  facet normal 0 0 1
    outer loop
      vertex 33.4772 25.4016 5.15224
      vertex 33.7654 26 5.15224
      vertex 33.3161 26 5.15224
    endloop
  endfacet
  facet normal 0 0 1
    outer loop
      vertex 33.7654 26 5.15224
      vertex 33.4772 26.5984 5.15224
      vertex 33 26.0023 5.15224
    endloop
  endfacet
  facet normal 0 0 1
    outer loop
      vertex 33.4772 26.5984 5.15224
      vertex 32.8297 26.7462 5.15224
      vertex 33 26.0023 5.15224
    endloop
  endfacet
  facet normal 0 0 1
    outer loop
      vertex 32.3104 26.0023 5.15224
      vertex 32.8297 26.7462 5.15224
      vertex 32.3104 26.3321 5.15224
    endloop
  endfacet
  facet normal 0 0 1
    outer loop
      vertex 32.3104 26.0023 5.15224
      vertex 33 26.0023 5.15224
      vertex 32.8297 26.7462 5.15224
    endloop
  endfacet
  facet normal -1 2.22045e-016 -2.22045e-016
    outer loop
      vertex 33 26.0023 5.15224
      vertex 33 26 5.15172
      vertex 33 26 5.15224
    endloop
  endfacet
  facet normal 2.22045e-016 -1 4.93038e-032
    outer loop
      vertex 33 26 5.15172
      vertex 33.3161 26 5.15224
      vertex 33 26 5.15224
    endloop
  endfacet
  facet normal 2.22045e-016 -1 4.93038e-032
    outer loop
      vertex 33 26 5
      vertex 33.3161 26 5.15224
      vertex 33 26 5.15172
    endloop
  endfacet
  facet normal 2.22045e-016 -1 4.93038e-032
    outer loop
      vertex 33 26 5.15172
      vertex 32.6849 26 5.15172
      vertex 33 26 5
    endloop
  endfacet
  facet normal -0.433884 -9.63415e-017 0.900969
    outer loop
      vertex 33.5463 6.68505 5.26309
      vertex 34.5637 26 5.75302
      vertex 33.3161 6.63515 5.15224
    endloop
  endfacet
  facet normal -0.433884 -9.63415e-017 0.900969
    outer loop
      vertex 33 6 5
      vertex 33.3161 6 5.15224
      vertex 33.3161 6.63515 5.15224
    endloop
  endfacet
  facet normal -0.433884 -9.63415e-017 0.900969
    outer loop
      vertex 33.7289 6.4885 5.35102
      vertex 34.1827 6 5.56954
      vertex 33.5463 6.68505 5.26309
    endloop
  endfacet
  facet normal -0.433884 -9.63415e-017 0.900969
    outer loop
      vertex 34.5637 26 5.75302
      vertex 33 6 5
      vertex 33.3161 6.63515 5.15224
    endloop
  endfacet
  facet normal -0.433884 -9.63415e-017 0.900969
    outer loop
      vertex 33.8587 25.6513 5.41354
      vertex 33.5463 25.3149 5.26309
      vertex 33 6 5
    endloop
  endfacet
  facet normal -0.433884 -9.63415e-017 0.900969
    outer loop
      vertex 34.1827 6 5.56954
      vertex 34.5637 6 5.75302
      vertex 33.5463 6.68505 5.26309
    endloop
  endfacet
  facet normal -0.433884 -9.63415e-017 0.900969
    outer loop
      vertex 34.5637 6 5.75302
      vertex 34.5637 26 5.75302
      vertex 33.5463 6.68505 5.26309
    endloop
  endfacet
  facet normal -0.433884 -9.63415e-017 0.900969
    outer loop
      vertex 34.5637 26 5.75302
      vertex 34.1827 26 5.56954
      vertex 33 6 5
    endloop
  endfacet
  facet normal -0.433884 -9.63415e-017 0.900969
    outer loop
      vertex 33.5463 25.3149 5.26309
      vertex 33.4316 25.3398 5.20783
      vertex 33 6 5
    endloop
  endfacet
  facet normal -0.433884 -9.63415e-017 0.900969
    outer loop
      vertex 33.3161 25.3648 5.15224
      vertex 33.3161 26 5.15224
      vertex 33 6 5
    endloop
  endfacet
  facet normal -0.433884 -9.63415e-017 0.900969
    outer loop
      vertex 33.4316 25.3398 5.20783
      vertex 33.3161 25.3648 5.15224
      vertex 33 6 5
    endloop
  endfacet
  facet normal -0.433884 -9.63415e-017 0.900969
    outer loop
      vertex 33.3161 26 5.15224
      vertex 33 26 5
      vertex 33 6 5
    endloop
  endfacet
  facet normal -0.433884 -9.63415e-017 0.900969
    outer loop
      vertex 34.1827 26 5.56954
      vertex 33.8587 25.6513 5.41354
      vertex 33 6 5
    endloop
  endfacet
  facet normal 1 0 0
    outer loop
      vertex -1.80194 16.8678 5
      vertex -1.80194 16.8678 13
      vertex -1.80194 15.1322 13
    endloop
  endfacet
  facet normal 1 0 0
    outer loop
      vertex -1.80194 15.1322 5
      vertex -1.80194 16.8678 5
      vertex -1.80194 15.1322 13
    endloop
  endfacet
  facet normal 0.62349 0.781831 0
    outer loop
      vertex -0.445042 14.0501 13
      vertex -0.445042 14.0501 5
      vertex -1.80194 15.1322 13
    endloop
  endfacet
  facet normal 0.62349 0.781831 0
    outer loop
      vertex -1.80194 15.1322 13
      vertex -0.445042 14.0501 5
      vertex -1.80194 15.1322 5
    endloop
  endfacet
  facet normal -0.222521 0.974928 0
    outer loop
      vertex 1.24698 14.4363 13
      vertex 1.24698 14.4363 5
      vertex -0.445042 14.0501 13
    endloop
  endfacet
  facet normal -0.222521 0.974928 0
    outer loop
      vertex -0.445042 14.0501 13
      vertex 1.24698 14.4363 5
      vertex -0.445042 14.0501 5
    endloop
  endfacet
  facet normal -0.900969 0.433884 0
    outer loop
      vertex 2 16 13
      vertex 2 16 5
      vertex 1.24698 14.4363 13
    endloop
  endfacet
  facet normal -0.900969 0.433884 0
    outer loop
      vertex 1.24698 14.4363 13
      vertex 2 16 5
      vertex 1.24698 14.4363 5
    endloop
  endfacet
  facet normal -0.900969 -0.433884 0
    outer loop
      vertex 2 16 13
      vertex 1.24698 17.5637 13
      vertex 2 16 5
    endloop
  endfacet
  facet normal -0.900969 -0.433884 0
    outer loop
      vertex 2 16 5
      vertex 1.24698 17.5637 13
      vertex 1.24698 17.5637 5
    endloop
  endfacet
  facet normal -0.222521 -0.974928 0
    outer loop
      vertex 1.24698 17.5637 5
      vertex 1.24698 17.5637 13
      vertex -0.445042 17.9499 13
    endloop
  endfacet
  facet normal -0.222521 -0.974928 0
    outer loop
      vertex -0.445042 17.9499 5
      vertex 1.24698 17.5637 5
      vertex -0.445042 17.9499 13
    endloop
  endfacet
  facet normal 0.62349 -0.781831 0
    outer loop
      vertex -0.445042 17.9499 5
      vertex -0.445042 17.9499 13
      vertex -1.80194 16.8678 13
    endloop
  endfacet
  facet normal 0.62349 -0.781831 0
    outer loop
      vertex -1.80194 16.8678 5
      vertex -0.445042 17.9499 5
      vertex -1.80194 16.8678 13
    endloop
  endfacet
  facet normal -0.165319 -0.724309 0.669362
    outer loop
      vertex 33.4772 6.59839 5.15224
      vertex 33.5463 6.68505 5.26309
      vertex 33.3161 6.63515 5.15224
    endloop
  endfacet
  facet normal -0.669362 -0.322348 0.669363
    outer loop
      vertex 33.7289 6.4885 5.35102
      vertex 33.5463 6.68505 5.26309
      vertex 33.4772 6.59839 5.15224
    endloop
  endfacet
  facet normal -0.669362 -0.322348 0.669362
    outer loop
      vertex 34.8478 6 6.23463
      vertex 34.6221 6 6.00895
      vertex 33.7654 6 5.15224
    endloop
  endfacet
  facet normal -0.669362 -0.322348 0.669362
    outer loop
      vertex 34.8478 6 6.23463
      vertex 34.6353 6.09276 6.06684
      vertex 34.6221 6 6.00895
    endloop
  endfacet
  facet normal -0.669362 -0.322348 0.669362
    outer loop
      vertex 34.6221 6 6.00895
      vertex 34.1827 6 5.56954
      vertex 33.7654 6 5.15224
    endloop
  endfacet
  facet normal -0.669362 -0.322348 0.669362
    outer loop
      vertex 33.7654 6 5.15224
      vertex 33.7289 6.4885 5.35102
      vertex 33.4772 6.59839 5.15224
    endloop
  endfacet
  facet normal -0.669362 -0.322348 0.669362
    outer loop
      vertex 33.7289 6.4885 5.35102
      vertex 33.7654 6 5.15224
      vertex 34.1827 6 5.56954
    endloop
  endfacet
  facet normal -0.669362 0.322348 0.669362
    outer loop
      vertex 34.1521 4.55536 6.23463
      vertex 34.8478 6 6.23463
      vertex 33.7654 6 5.15224
    endloop
  endfacet
  facet normal -0.669362 0.322348 0.669363
    outer loop
      vertex 34.1521 4.55536 6.23463
      vertex 33.7654 6 5.15224
      vertex 33.4772 5.40161 5.15224
    endloop
  endfacet
  facet normal -0.165319 0.724309 0.669362
    outer loop
      vertex 33.4772 5.40161 5.15224
      vertex 33 4.75538 5.73366
      vertex 34.1521 4.55536 6.23463
    endloop
  endfacet
  facet normal -0.165319 0.724309 0.669362
    outer loop
      vertex 34.1521 4.55536 6.23463
      vertex 33 4.75538 5.73366
      vertex 33 4.29241 6.23463
    endloop
  endfacet
  facet normal -0.669362 -0.322348 0.669363
    outer loop
      vertex 34.8478 6 6.23463
      vertex 34.6736 6.36167 6.23463
      vertex 34.6353 6.09276 6.06684
    endloop
  endfacet
  facet normal -2.22045e-016 1 -4.93038e-032
    outer loop
      vertex 34.6221 6 6.00895
      vertex 34.5637 6 5.75302
      vertex 34.1827 6 5.56954
    endloop
  endfacet
  facet normal 2.22045e-016 -1 4.93038e-032
    outer loop
      vertex 34.5637 26 5.75302
      vertex 34.6221 26 6.00895
      vertex 34.1827 26 5.56954
    endloop
  endfacet
  facet normal -0.669362 -0.322348 0.669362
    outer loop
      vertex 33.4772 26.5984 5.15224
      vertex 34.1827 26 5.56954
      vertex 34.6221 26 6.00895
    endloop
  endfacet
  facet normal -0.669362 -0.322348 0.669362
    outer loop
      vertex 33.4772 26.5984 5.15224
      vertex 34.6221 26 6.00895
      vertex 34.8478 26 6.23463
    endloop
  endfacet
  facet normal -0.669362 -0.322348 0.669362
    outer loop
      vertex 33.7654 26 5.15224
      vertex 34.1827 26 5.56954
      vertex 33.4772 26.5984 5.15224
    endloop
  endfacet
  facet normal -0.669362 0.322348 0.669362
    outer loop
      vertex 34.6736 25.6383 6.23463
      vertex 34.8478 26 6.23463
      vertex 34.6221 26 6.00895
    endloop
  endfacet
  facet normal -0.900969 0.433884 0
    outer loop
      vertex 34.8478 26 6.99773
      vertex 34.8478 26 6.23463
      vertex 34.6736 25.6383 6.23463
    endloop
  endfacet
  facet normal -0.669362 -0.322348 0.669363
    outer loop
      vertex 34.8478 26 6.23463
      vertex 34.1521 27.4446 6.23463
      vertex 33.4772 26.5984 5.15224
    endloop
  endfacet
  facet normal -0.165319 -0.724309 0.669362
    outer loop
      vertex 33.4772 26.5984 5.15224
      vertex 34.1521 27.4446 6.23463
      vertex 32.8297 26.7462 5.15224
    endloop
  endfacet
  facet normal -0.669362 0.322348 0.669362
    outer loop
      vertex 33.8587 25.6513 5.41354
      vertex 34.1827 26 5.56954
      vertex 33.7654 26 5.15224
    endloop
  endfacet
  facet normal -0.669362 0.322348 0.669363
    outer loop
      vertex 33.5463 25.3149 5.26309
      vertex 33.8587 25.6513 5.41354
      vertex 33.7654 26 5.15224
    endloop
  endfacet
  facet normal -0.669362 0.322348 0.669363
    outer loop
      vertex 33.4772 25.4016 5.15224
      vertex 33.5463 25.3149 5.26309
      vertex 33.7654 26 5.15224
    endloop
  endfacet
  facet normal -0.165319 0.724309 0.669362
    outer loop
      vertex 33.5463 25.3149 5.26309
      vertex 33.4772 25.4016 5.15224
      vertex 33.4316 25.3398 5.20783
    endloop
  endfacet
  facet normal -0.165319 0.724309 0.669362
    outer loop
      vertex 33.4316 25.3398 5.20783
      vertex 33.4772 25.4016 5.15224
      vertex 33.3161 25.3648 5.15224
    endloop
  endfacet
  facet normal 0 0 1
    outer loop
      vertex -1.80194 16.8678 5
      vertex -1.80194 15.1322 5
      vertex -0.445042 14.0501 5
    endloop
  endfacet
  facet normal 0 0 1
    outer loop
      vertex 2 16 5
      vertex -1.80194 16.8678 5
      vertex 1.24698 14.4363 5
    endloop
  endfacet
  facet normal 0 0 1
    outer loop
      vertex 1.24698 14.4363 5
      vertex -1.80194 16.8678 5
      vertex -0.445042 14.0501 5
    endloop
  endfacet
  facet normal 0 0 1
    outer loop
      vertex 1.24698 17.5637 5
      vertex -1.80194 16.8678 5
      vertex 2 16 5
    endloop
  endfacet
  facet normal 0 0 1
    outer loop
      vertex -0.445042 17.9499 5
      vertex -1.80194 16.8678 5
      vertex 1.24698 17.5637 5
    endloop
  endfacet
endsolid OpenSCAD_Model
